<?xml version="1.0" encoding="UTF-8" standalone="no"?>
<!-- Created with Inkscape (http://www.inkscape.org/) -->

<svg
   width="32"
   height="32"
   viewBox="0 0 8.4666666 8.4666666"
   version="1.1"
   id="svg1"
   xml:space="preserve"
   inkscape:version="1.3 (0e150ed6c4, 2023-07-21)"
   sodipodi:docname="favicon.svg"
   inkscape:export-filename="favicon.png"
   inkscape:export-xdpi="96"
   inkscape:export-ydpi="96"
   xmlns:inkscape="http://www.inkscape.org/namespaces/inkscape"
   xmlns:sodipodi="http://sodipodi.sourceforge.net/DTD/sodipodi-0.dtd"
   xmlns="http://www.w3.org/2000/svg"
   xmlns:svg="http://www.w3.org/2000/svg"><sodipodi:namedview
     id="namedview1"
     pagecolor="#ffffff"
     bordercolor="#000000"
     borderopacity="0.25"
     inkscape:showpageshadow="2"
     inkscape:pageopacity="0.0"
     inkscape:pagecheckerboard="0"
     inkscape:deskcolor="#d1d1d1"
     inkscape:document-units="mm"
     inkscape:zoom="2.6689955"
     inkscape:cx="-89.172125"
     inkscape:cy="-0.1873364"
     inkscape:window-width="1680"
     inkscape:window-height="987"
     inkscape:window-x="-8"
     inkscape:window-y="-8"
     inkscape:window-maximized="1"
     inkscape:current-layer="layer1"
     inkscape:export-bgcolor="#ffffff00" /><defs
     id="defs1" /><g
     inkscape:label="Layer 1"
     inkscape:groupmode="layer"
     id="layer1"
     transform="translate(0,-288.53333)"><rect
       style="opacity:1;fill:#209cee;fill-opacity:1;stroke:#ffffff;stroke-width:0;stroke-linecap:square;stroke-linejoin:round;stroke-miterlimit:6.9;stroke-dasharray:none;stroke-opacity:1"
       id="rect6"
       width="8.4666662"
       height="8.4666719"
       x="0"
       y="288.53333"
       ry="1.2391522" /><path
       id="text1"
       style="font-size:4px;line-height:7.6px;font-family:Sans;-inkscape-font-specification:'Sans, Normal';letter-spacing:0px;word-spacing:0px;direction:rtl;fill:#ffffff;fill-opacity:1;stroke-width:0;stroke-linecap:square;stroke-linejoin:round;stroke-miterlimit:6.9"
       d="m 0.50617051,289.17917 1.08158769,2.15439 -0.07028,0.15451 c -0.028646,0.0651 -0.063753,0.11445 -0.1054199,0.14831 -0.040364,0.0339 -0.081323,0.0588 -0.1229899,0.0744 -0.036459,0.0142 -0.078182,0.0229 -0.125057,0.0269 -0.046874,0.004 -0.082995,0.006 -0.1090372,0.006 -0.058594,0 -0.11100709,-0.002 -0.15657959,-0.008 -0.045573,-0.006 -0.078137,-0.0113 -0.0976685,-0.014 h -0.0273885 v 0.36121 c 0.0208333,10e-4 0.0684083,0.005 0.142627,0.0103 0.074218,0.005 0.13756919,0.008 0.18965249,0.008 0.058594,0 0.1188843,-0.005 0.1813843,-0.0155 0.063802,-0.0117 0.1296958,-0.0341 0.1974039,-0.0667 0.070312,-0.0352 0.1354411,-0.0845 0.1953369,-0.14832 0.061198,-0.0638 0.1138594,-0.14495 0.1581299,-0.24391 l 1.1053589,-2.44739 -0.3984253,-5.2e-4 -0.7617106,1.71514 -0.84956049,-1.71514 z m 3.86281329,0 c -0.2135413,0 -0.4081629,0.0333 -0.5839437,0.0997 -0.1744789,0.0664 -0.3238201,0.16258 -0.4475179,0.28888 -0.1276039,0.13022 -0.2252973,0.28972 -0.2930054,0.47852 -0.067708,0.1888 -0.1012858,0.40276 -0.1012858,0.64234 0,0.2526 0.035108,0.47471 0.1054199,0.66611 0.070312,0.19011 0.1680056,0.34707 0.2930054,0.47077 0.1276039,0.12632 0.2771935,0.2197 0.4490682,0.27957 0.1731767,0.0586 0.3652552,0.0879 0.5761922,0.0879 0.111979,0 0.2139936,-0.009 0.3064413,-0.0274 0.09375,-0.0169 0.1805054,-0.0378 0.2599324,-0.0625 0.09375,-0.0299 0.1690516,-0.0584 0.2263428,-0.0858 0.058594,-0.0273 0.1237225,-0.0566 0.1953369,-0.0879 v -0.4532 h -0.027388 c -0.1419268,0.12761 -0.2940596,0.223 -0.4568197,0.2868 -0.1627601,0.0638 -0.3372847,0.0956 -0.5234822,0.0956 -0.1354164,0 -0.2641441,-0.0226 -0.3865397,-0.0682 -0.1210935,-0.0469 -0.2271812,-0.11861 -0.3183269,-0.21497 -0.08724,-0.0924 -0.1589847,-0.21202 -0.2149739,-0.35915 -0.054687,-0.14713 -0.082165,-0.32318 -0.082165,-0.52761 0,-0.19531 0.024935,-0.36678 0.074414,-0.51522 0.050781,-0.14974 0.1209963,-0.27391 0.2108399,-0.37155 0.092448,-0.10028 0.1975221,-0.17379 0.3147094,-0.22066 0.1184894,-0.0482 0.2512902,-0.0723 0.3984253,-0.0723 0.1796872,0 0.3483605,0.0308 0.5059123,0.092 0.1575517,0.0612 0.3163008,0.15888 0.4764567,0.293 h 0.028939 v -0.45889 c -0.1901038,-0.0951 -0.3630985,-0.16172 -0.5193481,-0.19947 -0.1549477,-0.0377 -0.3103885,-0.0563 -0.4666382,-0.0563 z m 1.1539347,0.0522 1.0821045,2.15439 -0.07028,0.15452 c -0.028646,0.0651 -0.063753,0.11445 -0.10542,0.14831 -0.040365,0.0339 -0.081323,0.0588 -0.1229899,0.0744 -0.036459,0.0142 -0.078182,0.0229 -0.1250569,0.0269 -0.046875,0.004 -0.083512,0.006 -0.1095541,0.006 -0.058594,0 -0.1104903,-0.002 -0.1560628,-0.008 -0.045573,-0.006 -0.078137,-0.0114 -0.097668,-0.014 h -0.027389 v 0.36122 c 0.020833,10e-4 0.068408,0.005 0.142627,0.0103 0.074219,0.005 0.1375693,0.008 0.1896525,0.008 0.058594,0 0.1188844,-0.005 0.1813843,-0.0155 0.063802,-0.0117 0.1296957,-0.0341 0.1974039,-0.0667 0.070312,-0.0352 0.1354411,-0.0845 0.195337,-0.14831 0.061198,-0.0638 0.1138593,-0.14496 0.1581298,-0.24392 l 1.1053589,-2.44739 -0.3984253,-5.2e-4 -0.7617106,1.71514 -0.8495605,-1.71514 z" /><path
       id="path9"
       style="font-size:4px;line-height:7.6px;font-family:Sans;-inkscape-font-specification:'Sans, Normal';letter-spacing:0px;word-spacing:0px;direction:rtl;fill:#ffffff;fill-opacity:1;stroke-width:0;stroke-linecap:square;stroke-linejoin:round;stroke-miterlimit:6.9"
       d="m 5.4968225,292.9943 c -0.2005201,0 -0.3859828,0.0336 -0.5565551,0.10129 -0.1692711,0.0677 -0.3112307,0.16541 -0.4258138,0.293 -0.1197911,0.13412 -0.2108684,0.29591 -0.2733684,0.48472 -0.0625,0.1875 -0.093534,0.39967 -0.093534,0.63665 0,0.24088 0.031034,0.45484 0.093534,0.64234 0.063802,0.1875 0.1541142,0.346 0.2713013,0.47491 0.1171878,0.12891 0.2591475,0.22685 0.4258138,0.29455 0.1679683,0.0677 0.3541961,0.10181 0.5586222,0.10181 0.209635,0 0.3958619,-0.0333 0.5586223,-0.0997 0.1640623,-0.0664 0.3060227,-0.16511 0.4258138,-0.29662 0.1158878,-0.1263 0.2059509,-0.28404 0.269751,-0.47284 0.065106,-0.19011 0.097668,-0.40483 0.097668,-0.64441 0,-0.23958 -0.032318,-0.45405 -0.096118,-0.64285 -0.0625,-0.18881 -0.1528116,-0.34832 -0.2713013,-0.47852 -0.1158851,-0.1263 -0.2570804,-0.22324 -0.4237468,-0.29094 -0.1653643,-0.069 -0.3523563,-0.10336 -0.5606893,-0.10336 z m -2.9000813,0.008 c -0.1640622,0 -0.3268843,0.0176 -0.4883423,0.0527 -0.1614581,0.0351 -0.2909507,0.0736 -0.3886068,0.11523 v 0.42788 h 0.025322 c 0.029948,-0.0169 0.077523,-0.0421 0.1426269,-0.076 0.065104,-0.0339 0.128703,-0.0621 0.1912028,-0.0842 0.076823,-0.0261 0.1584923,-0.0487 0.2444295,-0.0682 0.085937,-0.0195 0.1795576,-0.0295 0.2811198,-0.0295 0.098958,0 0.1841838,0.007 0.2557984,0.0217 0.072916,0.013 0.1388101,0.0349 0.1974039,0.0661 0.059896,0.0312 0.1067061,0.0737 0.1405599,0.12711 0.035156,0.0534 0.05271,0.11523 0.05271,0.18552 0,0.15626 -0.068437,0.27583 -0.2051554,0.35915 -0.1367186,0.082 -0.3178595,0.123 -0.5431193,0.123 H 2.1533574 v 0.33022 h 0.3922241 c 0.1158852,0 0.2209597,0.009 0.3147095,0.0274 0.095052,0.0169 0.1759566,0.0446 0.2423624,0.0837 0.066406,0.0404 0.1190674,0.0938 0.1581299,0.1602 0.039063,0.0651 0.058394,0.14931 0.058394,0.25218 0,0.0898 -0.016024,0.171 -0.048576,0.24391 -0.03125,0.0716 -0.082133,0.13674 -0.1524454,0.19534 -0.067708,0.0534 -0.1562421,0.0941 -0.2656169,0.12144 -0.1093748,0.0273 -0.2111411,0.0408 -0.3048909,0.0408 -0.1471352,0 -0.301811,-0.0241 -0.4645712,-0.0723 -0.1614579,-0.0495 -0.3067263,-0.11231 -0.4356323,-0.18913 h -0.029456 v 0.43356 c 0.096354,0.0391 0.2258467,0.0767 0.3886068,0.11318 0.1640621,0.0351 0.3418949,0.0527 0.5333008,0.0527 0.1731767,0 0.3344688,-0.0224 0.4842082,-0.0667 0.1497392,-0.0443 0.2766888,-0.11041 0.3808553,-0.19895 0.091145,-0.0781 0.1661985,-0.17252 0.2247925,-0.28319 0.059893,-0.11068 0.089917,-0.23432 0.089917,-0.37104 0,-0.13281 -0.020862,-0.24119 -0.062528,-0.32452 -0.040365,-0.0847 -0.092013,-0.15411 -0.1545126,-0.20878 -0.061198,-0.0534 -0.129883,-0.0951 -0.2067057,-0.12505 -0.076823,-0.0312 -0.1493329,-0.0523 -0.217041,-0.0641 v -0.0295 c 0.16276,-0.0351 0.2970909,-0.1102 0.4025594,-0.22479 0.1067709,-0.11458 0.1601969,-0.25425 0.1601969,-0.41961 0,-0.11719 -0.026713,-0.21996 -0.080098,-0.30851 -0.053385,-0.0886 -0.1309817,-0.16439 -0.232544,-0.22686 -0.097656,-0.0573 -0.2045087,-0.0983 -0.3203939,-0.12299 -0.1145831,-0.0261 -0.2517052,-0.0393 -0.4118611,-0.0393 z m 2.9021484,0.32608 c 0.2929687,0 0.5242274,0.10278 0.6934977,0.30851 0.1692704,0.20443 0.2537313,0.49572 0.2537313,0.87333 0,0.38151 -0.085991,0.67383 -0.2578654,0.87695 -0.1705729,0.20182 -0.4003015,0.30283 -0.6893636,0.30283 -0.2890614,0 -0.5195556,-0.10101 -0.6914307,-0.30283 -0.1718743,-0.20312 -0.2578654,-0.49544 -0.2578654,-0.87695 0,-0.3776 0.084213,-0.6689 0.252181,-0.87333 0.1692704,-0.20573 0.401543,-0.30851 0.6971151,-0.30851 z" /></g></svg>
